HIERARCHY
ROOT Hips
{
	OFFSET 0.000000 0.000000 0.000000
	CHANNELS 6 Xposition Yposition Zposition Zrotation Yrotation Xrotation 
	JOINT LHipJoint
	{
		OFFSET 0.000000 0.000000 0.000000
		CHANNELS 3 Zrotation Yrotation Xrotation
		JOINT LeftUpLeg
		{
			OFFSET 1.363060 -1.794630 0.839290
			CHANNELS 3 Zrotation Yrotation Xrotation
			JOINT LeftLeg
			{
				OFFSET 2.448110 -6.726130 0.000000
				CHANNELS 3 Zrotation Yrotation Xrotation
				JOINT LeftFoot
				{
					OFFSET 2.562200 -7.039590 0.000000
					CHANNELS 3 Zrotation Yrotation Xrotation
					JOINT LeftToeBase
					{
						OFFSET 0.157640 -0.433110 2.322550
						CHANNELS 3 Zrotation Yrotation Xrotation
						End Site
						{
							OFFSET 0.000000 0.000000 0.000000
						}
					}
				}
			}
		}
	}
	JOINT RHipJoint
	{
		OFFSET 0.000000 0.000000 0.000000
		CHANNELS 3 Zrotation Yrotation Xrotation
		JOINT RightUpLeg
		{
			OFFSET -1.305520 -1.794630 0.839290
			CHANNELS 3 Zrotation Yrotation Xrotation
			JOINT RightLeg
			{
				OFFSET -2.542530 -6.985550 0.000000
				CHANNELS 3 Zrotation Yrotation Xrotation
				JOINT RightFoot
				{
					OFFSET -2.568260 -7.056230 0.000000
					CHANNELS 3 Zrotation Yrotation Xrotation
					JOINT RightToeBase
					{
						OFFSET -0.164730 -0.452590 2.363150
						CHANNELS 3 Zrotation Yrotation Xrotation
						End Site
						{
							OFFSET 0.000000 0.000000 0.000000
						}
					}
				}
			}
		}
	}
	JOINT LowerBack
	{
		OFFSET 0.000000 0.000000 0.000000
		CHANNELS 3 Zrotation Yrotation Xrotation
		JOINT Spine
		{
			OFFSET 0.028270 2.035590 -0.193380
			CHANNELS 3 Zrotation Yrotation Xrotation
			JOINT Spine1
			{
				OFFSET 0.056720 2.048850 -0.042750
				CHANNELS 3 Zrotation Yrotation Xrotation
				JOINT Neck
				{
					OFFSET 0.000000 0.000000 0.000000
					CHANNELS 3 Zrotation Yrotation Xrotation
					JOINT Neck1
					{
						OFFSET -0.054170 1.746240 0.172020
						CHANNELS 3 Zrotation Yrotation Xrotation
						JOINT Head
						{
							OFFSET 0.104070 1.761360 -0.123970
							CHANNELS 3 Zrotation Yrotation Xrotation
							End Site
							{
								OFFSET 0.000000 0.000000 0.000000
							}
						}
					}
				}
				JOINT LeftShoulder
				{
					OFFSET 0.000000 0.000000 0.000000
					CHANNELS 3 Zrotation Yrotation Xrotation
					JOINT LeftArm
					{
						OFFSET 3.362410 1.200890 -0.311210
						CHANNELS 3 Zrotation Yrotation Xrotation
						JOINT LeftForeArm
						{
							OFFSET 4.983000 -0.000000 -0.000000
							CHANNELS 3 Zrotation Yrotation Xrotation
							JOINT LeftHand
							{
								OFFSET 3.483560 -0.000000 -0.000000
								CHANNELS 3 Zrotation Yrotation Xrotation
								JOINT LeftFingerBase
								{
									OFFSET 0.000000 0.000000 0.000000
									CHANNELS 3 Zrotation Yrotation Xrotation
									JOINT LeftHandIndex1
									{
										OFFSET 0.715260 -0.000000 -0.000000
										CHANNELS 3 Zrotation Yrotation Xrotation
										End Site
										{
											OFFSET 0.000000 0.000000 0.000000
										}
									}
								}
								JOINT LThumb
								{
									OFFSET 0.000000 0.000000 0.000000
									CHANNELS 3 Zrotation Yrotation Xrotation
									End Site
									{
										OFFSET 0.000000 0.000000 0.000000
									}
								}
							}
						}
					}
				}
				JOINT RightShoulder
				{
					OFFSET 0.000000 0.000000 0.000000
					CHANNELS 3 Zrotation Yrotation Xrotation
					JOINT RightArm
					{
						OFFSET -3.136600 1.374050 -0.404650
						CHANNELS 3 Zrotation Yrotation Xrotation
						JOINT RightForeArm
						{
							OFFSET -5.241900 -0.000000 -0.000000
							CHANNELS 3 Zrotation Yrotation Xrotation
							JOINT RightHand
							{
								OFFSET -3.444170 -0.000000 -0.000000
								CHANNELS 3 Zrotation Yrotation Xrotation
								JOINT RightFingerBase
								{
									OFFSET 0.000000 0.000000 0.000000
									CHANNELS 3 Zrotation Yrotation Xrotation
									JOINT RightHandIndex1
									{
										OFFSET -0.622530 -0.000000 -0.000000
										CHANNELS 3 Zrotation Yrotation Xrotation
										End Site
										{
											OFFSET 0.000000 0.000000 0.000000
										}
									}
								}
								JOINT RThumb
								{
									OFFSET 0.000000 0.000000 0.000000
									CHANNELS 3 Zrotation Yrotation Xrotation
									End Site
									{
										OFFSET 0.000000 0.000000 0.000000
									}
								}
							}
						}
					}
				}
			}
		}
	}
}
MOTION
Frames: 7
Frame Time: 0.008333
-0.298008 17.575731 -31.840438 -2.833480 -4.929878 5.268827 -1.965036 2.512190 2.944923 -8.470264 -2.671100 -30.518359 17.622736 19.720502 83.664023 1.917176 -7.248019 20.371315 0.319400 -3.633000 -10.046200 5.053551 -2.360132 4.039940 22.517184 10.114555 -19.165145 -5.802836 -13.096842 46.719602 3.598530 -11.138795 -3.800764 -0.311300 3.587100 -9.917800 1.263288 -0.113006 12.165556 2.974587 0.533992 -1.697913 3.829448 -0.036082 -8.087652 -6.610074 -3.191212 -12.308036 6.267675 -3.457909 9.374662 0.901100 -1.472200 7.425300 -4.029390 1.676845 -1.146569 -84.253643 22.373217 42.685126 114.609214 -59.196878 -84.140456 -0.433919 -1.077732 -30.747505 25.679703 4.886533 2.809900 -7.125000 0.000000 0.000000 -0.080800 36.263600 0.017300 8.820175 -1.242407 -2.769315 73.950083 -10.415827 46.129353 -107.070082 61.581174 -77.992303 0.977495 -0.533499 -17.541343 -26.294850 34.105230 -16.233200 7.125000 0.000000 0.000000 3.176200 7.877100 3.586700 
-0.290326 17.583307 -31.404686 -3.095831 -5.044997 5.595881 -1.745063 2.341184 2.605531 -8.078093 -2.673350 -32.455694 17.720837 19.981545 83.753845 1.922417 -7.345256 18.891115 0.356900 -3.837900 -10.621100 5.145055 -2.449012 4.314954 22.751579 9.994422 -17.843963 -5.615072 -12.865333 46.035570 4.012353 -11.984131 -4.020634 -0.456700 4.335400 -12.022300 1.850221 0.310716 11.897749 2.793180 1.131008 -1.568519 2.886249 0.248086 -7.510374 -5.900565 -3.567855 -13.233493 6.190785 -4.024232 9.334118 0.700400 -1.701100 7.581800 -4.036001 1.726667 -1.185340 -83.100802 22.733193 43.603574 115.349734 -59.067824 -84.666891 -0.406165 -1.092502 -31.377601 25.349166 5.484836 3.067900 -7.125000 0.000000 0.000000 -0.395800 36.924900 0.078600 8.737723 -1.203994 -2.639444 74.796126 -8.056720 45.865818 -109.037214 61.131451 -79.486175 0.953329 -0.561005 -18.162663 -26.091269 33.666338 -15.921700 7.125000 0.000000 0.000000 3.230700 7.411000 3.625800 
-0.280435 17.613087 -30.963462 -3.314320 -5.175988 5.891256 -1.568856 2.173525 2.267256 -7.779030 -2.758155 -34.301533 17.561233 20.220222 83.083986 1.920055 -7.279775 18.395121 0.280000 -3.403200 -9.403400 5.264734 -2.557896 4.623347 22.847234 9.878613 -16.349506 -5.352646 -12.575180 45.068631 4.330255 -12.589149 -3.685285 -0.520900 4.625400 -12.843100 2.480573 0.545561 11.405851 2.620330 1.474828 -1.462263 2.007427 0.432899 -6.939003 -5.540571 -3.727989 -13.305745 6.269108 -4.334083 9.033425 0.664200 -1.831900 7.439700 -4.031246 1.789088 -1.204484 -82.257559 23.409880 43.918111 116.078034 -58.956417 -85.205933 -0.390333 -1.069364 -32.261360 24.764072 4.896882 2.695200 -7.125000 0.000000 0.000000 -0.870700 36.210600 0.188200 8.650281 -1.208735 -2.527683 75.417147 -6.339517 46.122750 -110.811156 60.706708 -80.801663 0.909788 -0.618528 -18.540030 -25.555596 34.111076 -15.723000 7.125000 0.000000 0.000000 3.656600 7.781700 4.125900 
-0.270754 17.664439 -30.511504 -3.467985 -5.334010 6.020982 -1.459614 2.039053 1.974520 -7.585408 -2.935345 -35.876768 17.238685 20.412417 81.969306 1.908043 -7.110280 18.300634 0.179500 -2.729000 -7.525100 5.379506 -2.730882 5.001948 22.780412 9.909820 -14.522182 -5.044935 -12.251788 43.984776 4.304776 -12.464899 -2.983904 -0.535200 4.687400 -13.019200 2.485388 1.000629 11.977419 2.659306 2.077650 -1.461801 2.010974 0.734947 -7.152183 -5.433621 -4.166096 -14.783564 6.074822 -4.761690 9.381039 0.501000 -2.019500 7.925700 -4.035261 1.813693 -1.263035 -82.005002 24.041341 44.533102 116.455699 -58.868190 -85.484431 -0.406254 -1.029502 -32.678706 24.671303 3.610932 2.050600 -7.125000 0.000000 0.000000 -0.888600 34.733500 0.224000 8.658524 -1.094630 -2.462389 75.243552 -4.785761 45.764156 -112.910518 60.206683 -82.459895 0.879878 -0.674665 -18.838491 -25.588188 35.065715 -16.088300 7.125000 0.000000 0.000000 3.867700 8.814200 4.424000 
-0.258231 17.740624 -30.048287 -3.438910 -5.503009 6.164260 -1.427755 1.915743 1.729080 -7.640255 -3.087529 -37.260155 16.719804 20.531010 80.290049 1.851164 -6.637821 17.873898 0.151900 -2.511800 -6.922300 5.500350 -2.928329 5.398046 22.433165 10.010180 -12.765464 -4.672979 -11.891062 42.667919 4.109859 -11.975269 -1.623719 -0.715600 5.405800 -15.069700 2.319412 1.222155 11.867448 2.729763 2.332860 -1.713852 2.291257 0.912423 -7.984893 -6.030218 -4.040039 -12.860659 6.160477 -4.668626 9.173015 0.672400 -2.027700 7.472900 -3.964553 1.813549 -1.296302 -82.316785 26.678137 44.389024 117.594063 -58.646447 -86.282843 -0.421933 -1.002233 -32.611950 24.712395 3.335704 1.907900 -7.125000 0.000000 0.000000 -0.844400 34.396100 0.219800 8.684644 -1.128984 -2.473581 74.661890 -5.075678 46.274166 -115.181055 59.680194 -84.168445 0.817276 -0.705812 -18.944342 -25.383480 35.334692 -16.013800 7.125000 0.000000 0.000000 4.075100 9.050000 4.676300 
-0.239185 17.830384 -29.576125 -3.369193 -5.361274 6.568880 -1.415192 1.781263 1.466941 -7.780616 -3.543077 -38.526857 16.052310 20.578516 78.166136 1.721499 -5.794886 16.916854 0.246600 -3.195200 -8.822800 5.663914 -3.079168 5.764958 21.946968 9.896714 -11.371323 -4.268192 -11.511181 41.182900 4.031976 -11.757502 0.088868 -0.948500 6.202400 -17.372800 2.486208 1.488532 11.528780 2.622199 2.670170 -1.825279 1.876498 1.102776 -8.115889 -5.905450 -4.231749 -12.701134 6.164569 -4.976013 9.204601 0.636700 -2.165500 7.468300 -3.945293 1.856745 -1.343612 -81.763205 28.178721 44.811518 118.487375 -58.465403 -86.914037 -0.418337 -0.995112 -32.724566 24.590176 3.470222 1.957300 -7.125000 0.000000 0.000000 -0.955100 34.531700 0.245400 8.635981 -1.108152 -2.447085 74.805882 -4.607923 46.095456 -117.159685 59.134071 -85.686948 0.764771 -0.725859 -19.004383 -24.710875 34.916338 -15.384300 7.125000 0.000000 0.000000 4.386200 8.461700 4.997500 
-0.212878 17.934666 -29.082708 -3.302715 -4.941884 6.940728 -1.454704 1.655506 1.204661 -7.915936 -4.312500 -39.493496 15.228390 20.537503 75.588689 1.499702 -4.572341 16.262999 0.318500 -3.627700 -10.031500 5.842459 -3.226738 6.173596 21.426657 9.415271 -10.070167 -3.897333 -11.134647 39.652940 4.314708 -12.342378 2.043785 -1.176500 6.884400 -19.373400 2.825201 1.670573 11.282127 2.495763 2.927103 -1.898174 1.335489 1.240819 -8.110000 -5.691911 -4.528637 -13.314218 6.142784 -5.353404 9.436649 0.562300 -2.317400 7.713100 -3.952816 1.914274 -1.397895 -81.214317 29.032881 45.202016 118.766647 -58.436173 -87.114473 -0.442986 -0.973133 -32.847396 24.978670 2.599243 1.556900 -7.125000 0.000000 0.000000 -0.595700 33.547800 0.167300 8.578063 -1.043424 -2.409554 75.009258 -3.856980 45.665780 -118.796951 58.628727 -86.966167 0.745456 -0.751573 -19.065259 -24.706810 34.786021 -15.328000 7.125000 0.000000 0.000000 4.383400 8.351800 4.987200 
